<?xml version="1.0" encoding="UTF-8"?>
<!DOCTYPE svg PUBLIC "-//W3C//DTD SVG 1.1//EN" "http://www.w3.org/Graphics/SVG/1.1/DTD/svg11.dtd">
<!-- Creator: CorelDRAW 2019 (64-Bit) -->
<svg xmlns="http://www.w3.org/2000/svg" xml:space="preserve" width="0.7618mm" height="1.3546mm" version="1.1" style="shape-rendering:geometricPrecision; text-rendering:geometricPrecision; image-rendering:optimizeQuality; fill-rule:evenodd; clip-rule:evenodd"
viewBox="0 0 76.18 135.46"
 xmlns:xlink="http://www.w3.org/1999/xlink"
 enable-background="new 0 0 24 24">
 <defs>
  <style type="text/css">
   <![CDATA[
    .fil0 {fill:white}
   ]]>
  </style>
 </defs>
 <g id="Слой_x0020_1">
  <metadata id="CorelCorpID_0Corel-Layer"/>
  <path class="fil0" d="M67.72 0.02l-17.56 -0.03c-19.74,0 -32.49,13.09 -32.49,33.34l0 15.38 -17.67 0c-1.52,0 -2.76,1.23 -2.76,2.76l0 22.27c0,1.53 1.24,2.76 2.76,2.76l17.67 0 0 56.2c0,1.53 1.23,2.77 2.76,2.77l23.04 0c1.53,0 2.76,-1.24 2.76,-2.77l0 -56.2 20.66 0c1.52,0 2.76,-1.23 2.76,-2.76l0.01 -22.27c0,-0.73 -0.29,-1.43 -0.81,-1.95 -0.52,-0.52 -1.22,-0.81 -1.96,-0.81l-20.66 0 0 -13.03c0,-6.27 1.5,-9.45 9.66,-9.45l11.83 0c1.52,0 2.76,-1.24 2.76,-2.76l0 -20.68c0,-1.53 -1.23,-2.76 -2.76,-2.77z"/>
 </g>
</svg>
