<?xml version="1.0" encoding="UTF-8"?>
<!DOCTYPE svg PUBLIC "-//W3C//DTD SVG 1.1//EN" "http://www.w3.org/Graphics/SVG/1.1/DTD/svg11.dtd">
<!-- Creator: CorelDRAW 2019 (64-Bit) -->
<svg xmlns="http://www.w3.org/2000/svg" xml:space="preserve" width="1.2698mm" height="1.2698mm" version="1.1" style="shape-rendering:geometricPrecision; text-rendering:geometricPrecision; image-rendering:optimizeQuality; fill-rule:evenodd; clip-rule:evenodd"
viewBox="0 0 126.98 126.98"
 xmlns:xlink="http://www.w3.org/1999/xlink"
 enable-background="new 0 0 24 24">
 <defs>
  <style type="text/css">
   <![CDATA[
    .fil1 {fill:#717171}
    .fil0 {fill:url(#id0)}
    .fil2 {fill:url(#id1)}
   ]]>
  </style>
  <linearGradient id="id0" gradientUnits="userSpaceOnUse" x1="17.8" y1="19.62" x2="103.87" y2="112.91">
   <stop offset="0" style="stop-opacity:1; stop-color:#E3E3E3"/>
   <stop offset="1" style="stop-opacity:1; stop-color:#A3A3A3"/>
  </linearGradient>
  <linearGradient id="id1" gradientUnits="userSpaceOnUse" xlink:href="#id0" x1="45.44" y1="51.69" x2="74.13" y2="82.78">
  </linearGradient>
 </defs>
 <g id="Слой_x0020_1">
  <metadata id="CorelCorpID_0Corel-Layer"/>
  <g>
   <path class="fil0" d="M59.26 4.22c35.07,0 63.5,28.43 63.5,63.5 0,35.07 -28.43,63.5 -63.5,63.5 -35.07,0 -63.5,-28.43 -63.5,-63.5 0,-35.07 28.43,-63.5 63.5,-63.5z"/>
   <path id="1" class="fil1" d="M122.76 67.72c0,35.07 -28.43,63.5 -63.5,63.5 -35.07,0 -63.5,-28.43 -63.5,-63.5 0,-35.07 28.43,-63.5 63.5,-63.5 35.07,0 63.5,28.43 63.5,63.5zm-18.61 -44.89c-11.48,-11.48 -27.36,-18.6 -44.89,-18.6 -17.53,0 -33.41,7.12 -44.89,18.6 -11.48,11.48 -18.6,27.36 -18.6,44.89 0,17.53 7.12,33.41 18.6,44.89 11.48,11.48 27.36,18.6 44.89,18.6 17.53,0 33.41,-7.12 44.89,-18.6 11.48,-11.48 18.6,-27.36 18.6,-44.89 0,-17.53 -7.12,-33.41 -18.6,-44.89z"/>
  </g>
  <g>
   <path class="fil2" d="M59.26 46.56c11.69,0 21.17,9.47 21.17,21.16 0,11.69 -9.48,21.16 -21.17,21.16 -11.69,0 -21.17,-9.47 -21.17,-21.16 0,-11.69 9.48,-21.16 21.17,-21.16z"/>
   <path id="1" class="fil1" d="M59.26 46.56c11.69,0 21.17,9.47 21.17,21.16 0,11.69 -9.48,21.16 -21.17,21.16 -11.69,0 -21.17,-9.47 -21.17,-21.16 0,-11.69 9.48,-21.16 21.17,-21.16zm14.96 6.21c-3.82,-3.82 -9.12,-6.2 -14.96,-6.2 -5.84,0 -11.14,2.38 -14.96,6.2 -3.82,3.82 -6.2,9.12 -6.2,14.95 0,5.83 2.38,11.13 6.2,14.95 3.82,3.82 9.12,6.2 14.96,6.2 5.84,0 11.14,-2.38 14.96,-6.2 3.82,-3.82 6.2,-9.12 6.2,-14.95 0,-5.83 -2.38,-11.13 -6.2,-14.95z"/>
  </g>
 </g>
</svg>
