<?xml version="1.0" encoding="UTF-8"?>
<!DOCTYPE svg PUBLIC "-//W3C//DTD SVG 1.1//EN" "http://www.w3.org/Graphics/SVG/1.1/DTD/svg11.dtd">
<!-- Creator: CorelDRAW 2019 (64-Bit) -->
<svg xmlns="http://www.w3.org/2000/svg" xml:space="preserve" width="1.3546mm" height="1.3546mm" version="1.1" style="shape-rendering:geometricPrecision; text-rendering:geometricPrecision; image-rendering:optimizeQuality; fill-rule:evenodd; clip-rule:evenodd"
viewBox="0 0 135.46 135.46"
 xmlns:xlink="http://www.w3.org/1999/xlink">
 <defs>
  <style type="text/css">
   <![CDATA[
    .fil0 {fill:#FEFEFE}
   ]]>
  </style>
 </defs>
 <g id="Слой_x0020_1">
  <metadata id="CorelCorpID_0Corel-Layer"/>
  <path class="fil0" d="M59.65 -0.01c-32.89,0 -59.66,26.77 -59.66,59.66 0,32.9 26.77,59.66 59.66,59.66 14.47,0 27.75,-5.18 38.09,-13.78l28.32 28.32c1.08,1.08 2.49,1.62 3.9,1.62 1.41,0 2.82,-0.54 3.89,-1.62 2.15,-2.15 2.15,-5.64 0,-7.79l-28.32 -28.32c8.6,-10.34 13.78,-23.62 13.78,-38.09 0,-32.89 -26.76,-59.66 -59.66,-59.66zm0 108.31c-26.82,0 -48.64,-21.82 -48.64,-48.65 0,-26.82 21.82,-48.64 48.64,-48.64 26.83,0 48.65,21.82 48.65,48.64 0,26.83 -21.82,48.65 -48.65,48.65z"/>
  <g id="_1540652721824">
  </g>
  <g id="_1540652718880">
  </g>
  <g id="_1540652720224">
  </g>
  <g id="_1540652718240">
  </g>
  <g id="_1540652714976">
  </g>
  <g id="_1540652713952">
  </g>
  <g id="_1540652776640">
  </g>
  <g id="_1540652777504">
  </g>
  <g id="_1540652777216">
  </g>
  <g id="_1540652774848">
  </g>
  <g id="_1540652775360">
  </g>
  <g id="_1540652772256">
  </g>
  <g id="_1540652770784">
  </g>
  <g id="_1540652767680">
  </g>
  <g id="_1540652766464">
  </g>
 </g>
</svg>
