<?xml version="1.0" encoding="UTF-8"?>
<!DOCTYPE svg PUBLIC "-//W3C//DTD SVG 1.1//EN" "http://www.w3.org/Graphics/SVG/1.1/DTD/svg11.dtd">
<!-- Creator: CorelDRAW 2019 (64-Bit) -->
<svg xmlns="http://www.w3.org/2000/svg" xml:space="preserve" width="1.3546mm" height="1.1852mm" version="1.1" style="shape-rendering:geometricPrecision; text-rendering:geometricPrecision; image-rendering:optimizeQuality; fill-rule:evenodd; clip-rule:evenodd"
viewBox="0 0 135.46 118.52"
 xmlns:xlink="http://www.w3.org/1999/xlink"
 enable-background="new 0 0 24 24">
 <defs>
  <style type="text/css">
   <![CDATA[
    .fil0 {fill:#FEFEFE}
   ]]>
  </style>
 </defs>
 <g id="Слой_x0020_1">
  <metadata id="CorelCorpID_0Corel-Layer"/>
  <g id="_1793194682400">
   <path class="fil0" d="M122.76 20.42l0 0zm11.65 -2.12c-5.34,0.45 -5.12,2.12 -11.65,2.12 4.04,-6.03 2.97,-1.36 9.53,-13.76 -3.57,0.83 -9.44,4.36 -17.99,6.35 -7.4,-4.95 -17.68,-14.51 -33.87,-5.29 -9.33,5.31 -17.17,16.07 -13.76,30.69 -36.52,-0.81 -52.42,-27.03 -58.21,-28.57 -1.91,8.2 -4.24,10.43 -2.08,20.06 2.21,9.87 5.21,9.53 9.49,15.92 -4.81,-0.11 -7.42,-1.5 -10.58,-3.18 0,7.85 2.26,13.96 6.06,18.28 7.1,8.05 10.19,7.62 14.05,10.3l-10.59 0c2.4,5 3.95,9.33 9.03,13.2 5.04,3.84 7.97,5.85 16.37,5.85 -7.32,9.99 -27.99,11.64 -40.22,11.64 11.62,10.09 32.4,12.92 47.67,12.74 16.33,-0.18 35.86,-8.84 44.68,-16.71 19.63,-17.52 28.05,-35.18 29.3,-61.71 0.27,-5.63 2.15,-6.02 5.81,-9 2.62,-2.14 6.1,-5.7 6.96,-8.93z"/>
   <polygon class="fil0" points="134.41,18.3 135.47,18.3 134.58,17.07 "/>
  </g>
 </g>
</svg>
