<?xml version="1.0" encoding="UTF-8"?>
<!DOCTYPE svg PUBLIC "-//W3C//DTD SVG 1.1//EN" "http://www.w3.org/Graphics/SVG/1.1/DTD/svg11.dtd">
<!-- Creator: CorelDRAW 2019 (64-Bit) -->
<svg xmlns="http://www.w3.org/2000/svg" xml:space="preserve" width="0.8466mm" height="0.7618mm" version="1.1" style="shape-rendering:geometricPrecision; text-rendering:geometricPrecision; image-rendering:optimizeQuality; fill-rule:evenodd; clip-rule:evenodd"
viewBox="0 0 84.66 76.18"
 xmlns:xlink="http://www.w3.org/1999/xlink"
 enable-background="new 0 0 24 24">
 <defs>
  <style type="text/css">
   <![CDATA[
    .fil0 {fill:#720F2A}
   ]]>
  </style>
 </defs>
 <g id="Слой_x0020_1">
  <metadata id="CorelCorpID_0Corel-Layer"/>
  <path class="fil0" d="M1.32 47.22c-0.96,1.12 -1.42,2.54 -1.31,4.01 0.12,1.47 0.79,2.8 1.91,3.76l27.17 23.29c1.01,0.86 2.27,1.32 3.58,1.32 0.16,0 0.33,0 0.49,-0.02 1.49,-0.13 2.83,-0.84 3.77,-1.99l46.48 -56.56c0.93,-1.14 1.37,-2.57 1.23,-4.04 -0.15,-1.46 -0.85,-2.78 -1.99,-3.72l-8.51 -6.99c-2.34,-1.92 -5.81,-1.58 -7.74,0.76l-35.78 43.54 -14.37 -12.32c-2.3,-1.96 -5.78,-1.7 -7.76,0.6l-7.17 8.36z"/>
 </g>
</svg>
