<?xml version="1.0" encoding="UTF-8"?>
<!DOCTYPE svg PUBLIC "-//W3C//DTD SVG 1.1//EN" "http://www.w3.org/Graphics/SVG/1.1/DTD/svg11.dtd">
<!-- Creator: CorelDRAW 2019 (64-Bit) -->
<svg xmlns="http://www.w3.org/2000/svg" xml:space="preserve" width="1.3546mm" height="1.3546mm" version="1.1" style="shape-rendering:geometricPrecision; text-rendering:geometricPrecision; image-rendering:optimizeQuality; fill-rule:evenodd; clip-rule:evenodd"
viewBox="0 0 135.46 135.46"
 xmlns:xlink="http://www.w3.org/1999/xlink">
 <defs>
  <style type="text/css">
   <![CDATA[
    .fil0 {fill:#FEFEFE}
   ]]>
  </style>
 </defs>
 <g id="Слой_x0020_1">
  <metadata id="CorelCorpID_0Corel-Layer"/>
  <path id="XMLID_505_" class="fil0" d="M17.39 0l100.69 0c9.56,0 17.39,7.82 17.39,17.39l0 100.69c0,9.56 -7.83,17.38 -17.39,17.38l-100.69 0c-9.57,0 -17.4,-7.82 -17.4,-17.38l0 -100.69c0,-9.57 7.83,-17.39 17.4,-17.39zm81.29 15.04c-3.36,0 -6.1,2.76 -6.1,6.11l0 14.59c0,3.36 2.74,6.11 6.1,6.11l15.31 0c3.36,0 6.1,-2.75 6.1,-6.11l0 -14.59c0,-3.35 -2.74,-6.11 -6.1,-6.11l-15.31 0zm21.47 42.24l-11.92 0c1.13,3.7 1.74,7.59 1.74,11.64 0,22.52 -18.86,40.79 -42.11,40.79 -23.25,0 -42.11,-18.27 -42.11,-40.79 0,-4.05 0.62,-7.94 1.74,-11.64l-12.44 0 0 57.23c0,2.97 2.42,5.38 5.39,5.38l94.33 0c2.96,0 5.38,-2.41 5.38,-5.38l0 -57.23zm-52.29 -16.2c-15.02,0 -27.2,11.8 -27.2,26.36 0,14.56 12.18,26.36 27.2,26.36 15.03,0 27.21,-11.8 27.21,-26.36 0,-14.56 -12.18,-26.36 -27.21,-26.36z"/>
 </g>
</svg>
