<?xml version="1.0" encoding="UTF-8"?>
<!DOCTYPE svg PUBLIC "-//W3C//DTD SVG 1.1//EN" "http://www.w3.org/Graphics/SVG/1.1/DTD/svg11.dtd">
<!-- Creator: CorelDRAW 2019 (64-Bit) -->
<svg xmlns="http://www.w3.org/2000/svg" xml:space="preserve" width="3.3866mm" height="2.7092mm" version="1.1" style="shape-rendering:geometricPrecision; text-rendering:geometricPrecision; image-rendering:optimizeQuality; fill-rule:evenodd; clip-rule:evenodd"
viewBox="0 0 338.66 270.92"
 xmlns:xlink="http://www.w3.org/1999/xlink">
 <defs>
  <style type="text/css">
   <![CDATA[
    .fil0 {fill:#2075A1}
   ]]>
  </style>
 </defs>
 <g id="Слой_x0020_1">
  <metadata id="CorelCorpID_0Corel-Layer"/>
  <g id="_1540715296336">
  </g>
  <g id="_1540715296592">
  </g>
  <g id="_1540715292400">
  </g>
  <g id="_1540715286576">
  </g>
  <g id="_1540715284592">
  </g>
  <g id="_1540715285616">
  </g>
  <g id="_1540715286352">
  </g>
  <g id="_1540715284112">
  </g>
  <g id="_1540715282288">
  </g>
  <g id="_1540715281904">
  </g>
  <g id="_1540715281616">
  </g>
  <g id="_1540715281168">
  </g>
  <g id="_1540715279216">
  </g>
  <g id="_1540715278256">
  </g>
  <g id="_1540715279728">
  </g>
  <g id="_1540715258896">
   <path class="fil0" d="M308.42 268.51c7.62,0 14.21,-2.51 19.82,-7.48l-95.95 -95.95c-2.3,1.65 -4.53,3.25 -6.64,4.77 -7.18,5.29 -13.01,9.42 -17.48,12.38 -4.48,2.97 -10.43,5.99 -17.86,9.07 -7.44,3.09 -14.37,4.63 -20.79,4.63l-0.19 0 -0.19 0c-6.43,0 -13.36,-1.54 -20.79,-4.63 -7.44,-3.08 -13.39,-6.1 -17.86,-9.07 -4.47,-2.96 -10.3,-7.08 -17.48,-12.38 -2.01,-1.46 -4.23,-3.07 -6.63,-4.8l-95.97 95.98c5.61,4.97 12.21,7.48 19.82,7.48l278.19 0z"/>
   <path class="fil0" d="M19.08 104.66c-7.17,-4.79 -13.54,-10.27 -19.08,-16.45l0 145.99 84.57 -84.57c-16.92,-11.81 -38.72,-26.79 -65.49,-44.97z"/>
   <path class="fil0" d="M319.77 104.66c-25.75,17.42 -47.62,32.42 -65.64,45l84.53 84.54 0 -145.99c-5.42,6.05 -11.71,11.53 -18.89,16.45z"/>
   <path class="fil0" d="M308.42 2.41l-278.18 0c-9.71,0 -17.17,3.28 -22.4,9.83 -5.23,6.55 -7.84,14.74 -7.84,24.56 0,7.94 3.46,16.54 10.39,25.8 6.93,9.26 14.3,16.54 22.11,21.83 4.29,3.03 17.2,12 38.75,26.93 11.63,8.06 21.74,15.09 30.44,21.15 7.41,5.16 13.8,9.63 19.07,13.34 0.61,0.43 1.56,1.11 2.82,2.01 1.37,0.98 3.09,2.22 5.22,3.76 4.09,2.96 7.49,5.35 10.2,7.18 2.71,1.83 5.98,3.87 9.83,6.14 3.84,2.27 7.47,3.97 10.87,5.11 3.4,1.13 6.55,1.7 9.45,1.7l0.18 0 0.19 0c2.9,0 6.05,-0.57 9.45,-1.7 3.4,-1.14 7.02,-2.84 10.87,-5.11 3.84,-2.27 7.11,-4.31 9.83,-6.14 2.71,-1.83 6.11,-4.22 10.2,-7.18 2.13,-1.54 3.85,-2.78 5.21,-3.75 1.27,-0.91 2.22,-1.59 2.83,-2.02 4.11,-2.86 10.51,-7.31 19.12,-13.29 15.67,-10.88 38.75,-26.91 69.33,-48.13 9.19,-6.42 16.88,-14.18 23.05,-23.24 6.16,-9.07 9.25,-18.59 9.25,-28.54 0,-8.32 -2.99,-15.43 -8.97,-21.36 -5.99,-5.92 -13.08,-8.88 -21.27,-8.88z"/>
  </g>
 </g>
</svg>
