<?xml version="1.0" encoding="UTF-8"?>
<!DOCTYPE svg PUBLIC "-//W3C//DTD SVG 1.1//EN" "http://www.w3.org/Graphics/SVG/1.1/DTD/svg11.dtd">
<!-- Creator: CorelDRAW 2019 (64-Bit) -->
<svg xmlns="http://www.w3.org/2000/svg" xml:space="preserve" width="1.2698mm" height="1.2698mm" version="1.1" style="shape-rendering:geometricPrecision; text-rendering:geometricPrecision; image-rendering:optimizeQuality; fill-rule:evenodd; clip-rule:evenodd"
viewBox="0 0 126.98 126.98"
 xmlns:xlink="http://www.w3.org/1999/xlink"
 enable-background="new 0 0 24 24">
 <defs>
  <style type="text/css">
   <![CDATA[
    .fil1 {fill:#717171}
    .fil2 {fill:#720F2A}
    .fil0 {fill:url(#id0)}
   ]]>
  </style>
  <linearGradient id="id0" gradientUnits="userSpaceOnUse" x1="17.8" y1="19.62" x2="103.87" y2="112.91">
   <stop offset="0" style="stop-opacity:1; stop-color:#E3E3E3"/>
   <stop offset="1" style="stop-opacity:1; stop-color:#A3A3A3"/>
  </linearGradient>
 </defs>
 <g id="Слой_x0020_1">
  <metadata id="CorelCorpID_0Corel-Layer"/>
  <g>
   <path class="fil0" d="M59.26 4.22c35.07,0 63.5,28.43 63.5,63.5 0,35.07 -28.43,63.5 -63.5,63.5 -35.07,0 -63.5,-28.43 -63.5,-63.5 0,-35.07 28.43,-63.5 63.5,-63.5z"/>
   <path id="1" class="fil1" d="M122.76 67.72c0,35.07 -28.43,63.5 -63.5,63.5 -35.07,0 -63.5,-28.43 -63.5,-63.5 0,-35.07 28.43,-63.5 63.5,-63.5 35.07,0 63.5,28.43 63.5,63.5zm-18.61 -44.89c-11.48,-11.48 -27.36,-18.6 -44.89,-18.6 -17.53,0 -33.41,7.12 -44.89,18.6 -11.48,11.48 -18.6,27.36 -18.6,44.89 0,17.53 7.12,33.41 18.6,44.89 11.48,11.48 27.36,18.6 44.89,18.6 17.53,0 33.41,-7.12 44.89,-18.6 11.48,-11.48 18.6,-27.36 18.6,-44.89 0,-17.53 -7.12,-33.41 -18.6,-44.89z"/>
  </g>
  <ellipse class="fil2" cx="59.26" cy="67.72" rx="21.17" ry="21.16"/>
 </g>
</svg>
