<?xml version="1.0" encoding="utf-8"?>
<!-- Generator: Adobe Illustrator 16.2.0, SVG Export Plug-In . SVG Version: 6.00 Build 0)  -->
<!DOCTYPE svg PUBLIC "-//W3C//DTD SVG 1.1//EN" "http://www.w3.org/Graphics/SVG/1.1/DTD/svg11.dtd">
<svg version="1.1" id="Capa_1" xmlns="http://www.w3.org/2000/svg" xmlns:xlink="http://www.w3.org/1999/xlink" x="0px" y="0px"
	 width="512px" height="512px" viewBox="0 0 512 512" enable-background="new 0 0 512 512" xml:space="preserve">
<g>
	<path fill="#c1bdbd" d="M477.675,127.498c-22.893-39.22-53.945-70.272-93.166-93.164C345.28,11.443,302.458,0,256.008,0
		c-46.445,0-89.281,11.443-128.502,34.333C88.283,57.222,57.23,88.274,34.337,127.498C11.443,166.723,0,209.559,0,256
		c0,46.445,11.446,89.273,34.334,128.5c22.892,39.22,53.944,70.272,93.167,93.167c39.226,22.889,82.058,34.333,128.502,34.333
		s89.281-11.444,128.504-34.333c39.222-22.887,70.273-53.947,93.164-93.167c22.887-39.225,34.328-82.059,34.328-128.5
		C512,209.554,500.557,166.717,477.675,127.498z M405.342,277.334c0,5.776-2.114,10.783-6.337,14.999
		c-4.22,4.22-9.222,6.337-15,6.337H128.001c-5.776,0-10.775-2.116-14.999-6.337c-4.222-4.215-6.333-9.222-6.333-14.999v-42.67
		c0-5.777,2.112-10.777,6.333-15c4.223-4.223,9.221-6.335,14.999-6.335h256.004c5.777,0,10.779,2.112,15,6.335
		c4.223,4.221,6.337,9.221,6.337,15V277.334z"/>
</g>
<path fill="#FFFFFF" d="M405.342,277.334c0,5.776-2.114,10.783-6.337,14.999c-4.22,4.22-9.222,6.337-15,6.337H128.001
	c-5.776,0-10.775-2.116-14.999-6.337c-4.222-4.215-6.333-9.222-6.333-14.999v-42.67c0-5.777,2.112-10.777,6.333-15
	c4.223-4.223,9.221-6.335,14.999-6.335h256.004c5.777,0,10.779,2.112,15,6.335c4.223,4.221,6.337,9.221,6.337,15V277.334z"/>
</svg>
