<?xml version="1.0" encoding="UTF-8"?>
<!DOCTYPE svg PUBLIC "-//W3C//DTD SVG 1.1//EN" "http://www.w3.org/Graphics/SVG/1.1/DTD/svg11.dtd">
<!-- Creator: CorelDRAW 2019 (64-Bit) -->
<svg xmlns="http://www.w3.org/2000/svg" xml:space="preserve" width="1.6932mm" height="1.6932mm" version="1.1" style="shape-rendering:geometricPrecision; text-rendering:geometricPrecision; image-rendering:optimizeQuality; fill-rule:evenodd; clip-rule:evenodd"
viewBox="0 0 169.32 169.32"
 xmlns:xlink="http://www.w3.org/1999/xlink"
 enable-background="new 0 0 24 24">
 <defs>
  <style type="text/css">
   <![CDATA[
    .fil1 {fill:#720F2A}
    .fil0 {fill:white}
   ]]>
  </style>
 </defs>
 <g id="Слой_x0020_1">
  <metadata id="CorelCorpID_0Corel-Layer"/>
  <g>
   <path class="fil0" d="M57.21 54.07c-3.75,0 -41.77,3.88 -48.27,4.32 -5.41,0.37 -8.6,4.25 -8.94,8.45l0 1.54c0.19,2.29 1.23,4.55 3.22,6.28 0.61,0.53 0.71,0.5 1.31,1.01l28.63 25.27c0.68,0.56 0.8,0.53 1.48,1.17 1.7,1.59 3.49,3.29 5.37,4.55 -0.7,1.46 -11.24,48.51 -11.24,50.27 0,4.53 4.16,8.93 8.93,8.93 3.87,0 8.57,-3.52 12.38,-5.81l28.77 -17.2c2.01,-1.2 3.85,-2.41 5.81,-3.45l39.96 23.88c4.01,2.42 8.59,4.35 13.05,0.03 5.16,-4.99 1.89,-11.15 0.26,-18.97l-8.62 -37.68 29.86 -26.03c3.48,-2.93 10.15,-7.68 10.15,-12.34 0,-5.84 -3.24,-9.34 -8.64,-9.87l-48.57 -4.35c-0.13,-1.54 -15.93,-37.76 -17.29,-40.92 -0.97,-2.25 -1.76,-4.67 -3.16,-6.43 -3.4,-4.3 -10.35,-4.37 -13.86,-0.18 -1.99,2.37 -15.21,34.38 -17.76,40.45 -0.63,1.52 -2.72,5.75 -2.83,7.08z"/>
   <path id="1" class="fil1" d="M57.21 54.08c-2.19,0 -16.13,1.34 -28.6,2.52 -8.84,0.83 -16.98,1.63 -19.67,1.8 -2.55,0.17 -4.63,1.14 -6.13,2.56 -1.65,1.56 -2.63,3.69 -2.8,5.88l0 1.54c0.09,1.17 0.43,2.36 0.98,3.44 0.52,1.01 1.27,1.99 2.24,2.83l0.68 0.52 0.63 0.49 28.63 25.27 0.64 0.48c0.23,0.16 0.45,0.33 0.84,0.69l0.24 0.22c1.62,1.52 3.35,3.14 5.13,4.33l0.01 0 -0.01 0.01c-0.34,0.73 -3.24,13.18 -5.99,25.5 -2.67,11.99 -5.25,23.9 -5.25,24.77 0,2.28 1.08,4.56 2.74,6.22 1.62,1.62 3.84,2.7 6.18,2.7 3.16,0 6.89,-2.36 10.21,-4.47l2.16 -1.34 28.77 -17.2 1.89 -1.15c1.27,-0.78 2.54,-1.56 3.93,-2.3l0 -0.01 0.01 0.01 39.96 23.88c2.01,1.21 4.17,2.31 6.35,2.54 2.18,0.24 4.46,-0.36 6.68,-2.51 4.1,-3.96 2.86,-8.7 1.37,-14.39 -0.37,-1.45 -0.79,-2.99 -1.11,-4.57l-8.62 -37.68 -0.01 -0.01 0.01 0 29.86 -26.03 1.46 -1.2c3.6,-2.92 8.69,-7.07 8.69,-11.13 0,-2.88 -0.81,-5.21 -2.26,-6.87 -1.47,-1.69 -3.67,-2.73 -6.37,-2.99l-48.57 -4.35 -0.01 0 0 -0.01c-0.1,-1.33 -12.16,-29.07 -16.12,-38.23l-1.17 -2.69 -0.63 -1.51c-0.71,-1.76 -1.44,-3.54 -2.53,-4.91 -0.35,-0.44 -0.76,-0.87 -1.18,-1.22 -1.59,-1.33 -3.66,-2.04 -5.69,-2.06 -2.05,-0.01 -4.12,0.62 -5.75,1.91 -0.43,0.34 -0.86,0.76 -1.22,1.19 -1.76,2.09 -12.26,27.27 -16.45,37.31l-1.31 3.13 -0.72 1.62c-0.85,1.88 -2.04,4.48 -2.11,5.46l0 0.01 -0.01 0zm0 -0.01c-3.75,0 -41.77,3.88 -48.27,4.32 -5.41,0.37 -8.6,4.25 -8.94,8.45l0 1.54c0.19,2.29 1.23,4.55 3.22,6.28 0.09,0.07 0.16,0.14 0.23,0.19l0.28 0.22c0.24,0.17 0.42,0.28 0.8,0.6l28.63 25.27c0.68,0.56 0.8,0.53 1.48,1.17 1.7,1.59 3.49,3.29 5.37,4.55 -0.7,1.46 -11.24,48.51 -11.24,50.27 0,4.53 4.16,8.93 8.93,8.93 3.87,0 8.57,-3.52 12.38,-5.81l28.77 -17.2c2.01,-1.2 3.85,-2.41 5.81,-3.45l39.96 23.88c4.01,2.42 8.59,4.35 13.05,0.03 5.16,-4.99 1.89,-11.15 0.26,-18.97l-8.62 -37.68 29.86 -26.03c3.48,-2.93 10.15,-7.68 10.15,-12.34 0,-5.84 -3.24,-9.34 -8.64,-9.87l-48.57 -4.35c-0.13,-1.54 -15.93,-37.76 -17.29,-40.92 -0.97,-2.25 -1.76,-4.67 -3.16,-6.43 -3.4,-4.3 -10.35,-4.37 -13.86,-0.18 -1.99,2.37 -15.21,34.38 -17.76,40.45 -0.63,1.52 -2.72,5.75 -2.83,7.08z"/>
  </g>
 </g>
</svg>
