<?xml version="1.0" encoding="UTF-8"?>
<!DOCTYPE svg PUBLIC "-//W3C//DTD SVG 1.1//EN" "http://www.w3.org/Graphics/SVG/1.1/DTD/svg11.dtd">
<!-- Creator: CorelDRAW 2019 (64-Bit) -->
<svg xmlns="http://www.w3.org/2000/svg" xml:space="preserve" width="1.6932mm" height="1.6932mm" version="1.1" style="shape-rendering:geometricPrecision; text-rendering:geometricPrecision; image-rendering:optimizeQuality; fill-rule:evenodd; clip-rule:evenodd"
viewBox="0 0 169.32 169.32"
 xmlns:xlink="http://www.w3.org/1999/xlink"
 enable-background="new 0 0 24 24">
 <defs>
  <style type="text/css">
   <![CDATA[
    .fil0 {fill:#720F2A}
   ]]>
  </style>
 </defs>
 <g id="Слой_x0020_1">
  <metadata id="CorelCorpID_0Corel-Layer"/>
  <path class="fil0" d="M100.17 84.66l65.94 -65.94c4.29,-4.28 4.29,-11.22 0,-15.51 -4.29,-4.29 -11.23,-4.29 -15.52,0l-65.93 65.94 -65.93 -65.94c-4.3,-4.29 -11.23,-4.29 -15.52,0 -4.29,4.29 -4.29,11.23 0,15.51l65.94 65.94 -65.94 65.94c-4.29,4.29 -4.29,11.22 0,15.51 2.14,2.14 4.95,3.22 7.76,3.22 2.81,0 5.62,-1.08 7.76,-3.22l65.93 -65.94 65.93 65.94c2.14,2.14 4.95,3.22 7.76,3.22 2.81,0 5.62,-1.08 7.76,-3.22 4.29,-4.29 4.29,-11.22 0,-15.51l-65.94 -65.94zm0 0z"/>
 </g>
</svg>
