<?xml version="1.0" encoding="UTF-8"?>
<!DOCTYPE svg PUBLIC "-//W3C//DTD SVG 1.1//EN" "http://www.w3.org/Graphics/SVG/1.1/DTD/svg11.dtd">
<!-- Creator: CorelDRAW 2019 (64-Bit) -->
<svg xmlns="http://www.w3.org/2000/svg" xml:space="preserve" width="1.3546mm" height="0.8466mm" version="1.1" style="shape-rendering:geometricPrecision; text-rendering:geometricPrecision; image-rendering:optimizeQuality; fill-rule:evenodd; clip-rule:evenodd"
viewBox="0 0 135.46 84.66"
 xmlns:xlink="http://www.w3.org/1999/xlink"
 enable-background="new 0 0 24 24">
 <defs>
  <style type="text/css">
   <![CDATA[
    .fil0 {fill:white}
   ]]>
  </style>
 </defs>
 <g id="Слой_x0020_1">
  <metadata id="CorelCorpID_0Corel-Layer"/>
  <path class="fil0" d="M134.26 72.62c-0.37,-0.61 -2.62,-5.5 -13.46,-15.56 -11.34,-10.53 -9.82,-8.82 3.85,-27.03 8.32,-11.1 11.65,-17.87 10.61,-20.76 -0.99,-2.76 -7.12,-2.04 -7.12,-2.04l-20.35 0.12c0,0 -1.51,-0.2 -2.64,0.47 -1.09,0.66 -1.79,2.18 -1.79,2.18 0,0 -3.23,8.59 -7.53,15.89 -9.07,15.4 -12.7,16.21 -14.18,15.25 -3.45,-2.22 -2.58,-8.95 -2.58,-13.73 0,-14.93 2.26,-21.15 -4.42,-22.76 -2.21,-0.53 -3.84,-0.89 -9.5,-0.95 -7.27,-0.07 -13.43,0.03 -16.91,1.73 -2.32,1.13 -4.1,3.67 -3.01,3.81 1.35,0.18 4.39,0.82 6.01,3.02 2.09,2.84 2.02,9.22 2.02,9.22 0,0 1.2,17.57 -2.81,19.76 -2.75,1.49 -6.52,-1.56 -14.6,-15.54 -4.14,-7.15 -7.28,-15.07 -7.28,-15.07 0,0 -0.6,-1.47 -1.67,-2.26 -1.31,-0.96 -3.13,-1.26 -3.13,-1.26l-19.36 0.11c0,0 -2.91,0.09 -3.97,1.35 -0.95,1.13 -0.08,3.45 -0.08,3.45 0,0 15.16,35.45 32.31,53.32 15.74,16.38 33.61,15.31 33.61,15.31l8.1 0c0,0 2.44,-0.27 3.69,-1.62 1.15,-1.23 1.11,-3.55 1.11,-3.55 0,0 -0.16,-10.87 4.88,-12.47 4.97,-1.57 11.36,10.5 18.12,15.15 5.12,3.51 9,2.74 9,2.74l18.1 -0.25c0,0 9.47,-0.58 4.98,-8.03z"/>
 </g>
</svg>
