<?xml version="1.0" encoding="utf-8"?><svg xmlns="http://www.w3.org/2000/svg" xmlns:xlink="http://www.w3.org/1999/xlink"><symbol viewBox="0 0 84.66 76.18" id="check" xmlns="http://www.w3.org/2000/svg"><path d="M1.32 47.22a5.48 5.48 0 00-1.31 4.01c.12 1.47.79 2.8 1.91 3.76l27.17 23.29a5.5 5.5 0 003.58 1.32c.16 0 .33 0 .49-.02 1.49-.13 2.83-.84 3.77-1.99l46.48-56.56a5.52 5.52 0 001.23-4.04 5.515 5.515 0 00-1.99-3.72l-8.51-6.99c-2.34-1.92-5.81-1.58-7.74.76L30.62 50.58 16.25 38.26a5.528 5.528 0 00-7.76.6l-7.17 8.36z"/></symbol><symbol viewBox="0 0 7 10" id="dev-hleb-kroshki" xmlns="http://www.w3.org/2000/svg"><path d="M1.268 3.258l1.375 1.937-1.375 1.75m2.92-3.687l1.313 1.844-1.313 1.843"/></symbol><symbol viewBox="0 0 76.18 135.46" id="fs" xmlns="http://www.w3.org/2000/svg"><path d="M67.72.02L50.16-.01c-19.74 0-32.49 13.09-32.49 33.34v15.38H0a2.76 2.76 0 00-2.76 2.76v22.27A2.76 2.76 0 000 76.5h17.67v56.2c0 1.53 1.23 2.77 2.76 2.77h23.04c1.53 0 2.76-1.24 2.76-2.77V76.5h20.66a2.76 2.76 0 002.76-2.76l.01-22.27c0-.73-.29-1.43-.81-1.95s-1.22-.81-1.96-.81H46.23V35.68c0-6.27 1.5-9.45 9.66-9.45h11.83c1.52 0 2.76-1.24 2.76-2.76V2.79c0-1.53-1.23-2.76-2.76-2.77z"/></symbol><symbol viewBox="0 0 460.298 460.297" class="dhovered-paths" id="home" xmlns="http://www.w3.org/2000/svg"><path d="M230.149 120.939L65.986 256.274c0 .191-.048.472-.144.855-.094.38-.144.656-.144.852v137.041c0 4.948 1.809 9.236 5.426 12.847 3.616 3.613 7.898 5.431 12.847 5.431h109.63V303.664h73.097v109.64h109.629c4.948 0 9.236-1.814 12.847-5.435 3.617-3.607 5.432-7.898 5.432-12.847V257.981c0-.76-.104-1.334-.288-1.707L230.149 120.939z" data-original="#000000" class="dhovered-path dactive-path" data-old_color="#000000"/><path d="M457.122 225.438L394.6 173.476V56.989c0-2.663-.856-4.853-2.574-6.567-1.704-1.712-3.894-2.568-6.563-2.568h-54.816c-2.666 0-4.855.856-6.57 2.568-1.711 1.714-2.566 3.905-2.566 6.567v55.673l-69.662-58.245c-6.084-4.949-13.318-7.423-21.694-7.423-8.375 0-15.608 2.474-21.698 7.423L3.172 225.438c-1.903 1.52-2.946 3.566-3.14 6.136-.193 2.568.472 4.811 1.997 6.713l17.701 21.128c1.525 1.712 3.521 2.759 5.996 3.142 2.285.192 4.57-.476 6.855-1.998L230.149 95.817l197.57 164.741c1.526 1.328 3.521 1.991 5.996 1.991h.858c2.471-.376 4.463-1.43 5.996-3.138l17.703-21.125c1.522-1.906 2.189-4.145 1.991-6.716-.195-2.563-1.242-4.609-3.141-6.132z" data-original="#000000" class="dhovered-path dactive-path" data-old_color="#000000"/></symbol><symbol viewBox="0 0 135.46 135.46" id="inst" xmlns="http://www.w3.org/2000/svg"><path d="M17.39 0h100.69c9.56 0 17.39 7.82 17.39 17.39v100.69c0 9.56-7.83 17.38-17.39 17.38H17.39c-9.57 0-17.4-7.82-17.4-17.38V17.39C-.01 7.82 7.82 0 17.39 0zm81.29 15.04c-3.36 0-6.1 2.76-6.1 6.11v14.59c0 3.36 2.74 6.11 6.1 6.11h15.31c3.36 0 6.1-2.75 6.1-6.11V21.15c0-3.35-2.74-6.11-6.1-6.11H98.68zm21.47 42.24h-11.92a39.7 39.7 0 011.74 11.64c0 22.52-18.86 40.79-42.11 40.79S25.75 91.44 25.75 68.92c0-4.05.62-7.94 1.74-11.64H15.05v57.23c0 2.97 2.42 5.38 5.39 5.38h94.33c2.96 0 5.38-2.41 5.38-5.38V57.28zm-52.29-16.2c-15.02 0-27.2 11.8-27.2 26.36 0 14.56 12.18 26.36 27.2 26.36 15.03 0 27.21-11.8 27.21-26.36 0-14.56-12.18-26.36-27.21-26.36z"/></symbol><symbol viewBox="0 0 338.66 270.92" id="mail" xmlns="http://www.w3.org/2000/svg"><defs><style>.ffil0{fill:#2075a1}</style></defs><g id="fСлой_x0020_1"><g id="f_1540715258896"><path class="ffil0" d="M308.42 268.51c7.62 0 14.21-2.51 19.82-7.48l-95.95-95.95c-2.3 1.65-4.53 3.25-6.64 4.77-7.18 5.29-13.01 9.42-17.48 12.38-4.48 2.97-10.43 5.99-17.86 9.07-7.44 3.09-14.37 4.63-20.79 4.63h-.38c-6.43 0-13.36-1.54-20.79-4.63-7.44-3.08-13.39-6.1-17.86-9.07-4.47-2.96-10.3-7.08-17.48-12.38-2.01-1.46-4.23-3.07-6.63-4.8l-95.97 95.98c5.61 4.97 12.21 7.48 19.82 7.48h278.19zM19.08 104.66C11.91 99.87 5.54 94.39 0 88.21V234.2l84.57-84.57c-16.92-11.81-38.72-26.79-65.49-44.97zm300.69 0c-25.75 17.42-47.62 32.42-65.64 45l84.53 84.54V88.21c-5.42 6.05-11.71 11.53-18.89 16.45z"/><path class="ffil0" d="M308.42 2.41H30.24c-9.71 0-17.17 3.28-22.4 9.83C2.61 18.79 0 26.98 0 36.8c0 7.94 3.46 16.54 10.39 25.8 6.93 9.26 14.3 16.54 22.11 21.83 4.29 3.03 17.2 12 38.75 26.93 11.63 8.06 21.74 15.09 30.44 21.15 7.41 5.16 13.8 9.63 19.07 13.34.61.43 1.56 1.11 2.82 2.01 1.37.98 3.09 2.22 5.22 3.76 4.09 2.96 7.49 5.35 10.2 7.18 2.71 1.83 5.98 3.87 9.83 6.14 3.84 2.27 7.47 3.97 10.87 5.11 3.4 1.13 6.55 1.7 9.45 1.7h.37c2.9 0 6.05-.57 9.45-1.7 3.4-1.14 7.02-2.84 10.87-5.11 3.84-2.27 7.11-4.31 9.83-6.14 2.71-1.83 6.11-4.22 10.2-7.18 2.13-1.54 3.85-2.78 5.21-3.75 1.27-.91 2.22-1.59 2.83-2.02 4.11-2.86 10.51-7.31 19.12-13.29 15.67-10.88 38.75-26.91 69.33-48.13 9.19-6.42 16.88-14.18 23.05-23.24 6.16-9.07 9.25-18.59 9.25-28.54 0-8.32-2.99-15.43-8.97-21.36-5.99-5.92-13.08-8.88-21.27-8.88z"/></g></g></symbol><symbol viewBox="0 0 126.98 126.98" id="marker-act" xmlns="http://www.w3.org/2000/svg"><path d="M59.26 4.22c35.07 0 63.5 28.43 63.5 63.5s-28.43 63.5-63.5 63.5-63.5-28.43-63.5-63.5 28.43-63.5 63.5-63.5z"/><path d="M122.76 67.72c0 35.07-28.43 63.5-63.5 63.5s-63.5-28.43-63.5-63.5 28.43-63.5 63.5-63.5 63.5 28.43 63.5 63.5zm-18.61-44.89C92.67 11.35 76.79 4.23 59.26 4.23s-33.41 7.12-44.89 18.6C2.89 34.31-4.23 50.19-4.23 67.72s7.12 33.41 18.6 44.89c11.48 11.48 27.36 18.6 44.89 18.6s33.41-7.12 44.89-18.6c11.48-11.48 18.6-27.36 18.6-44.89s-7.12-33.41-18.6-44.89z"/><ellipse cx="59.26" cy="67.72" rx="21.17" ry="21.16"/></symbol><symbol viewBox="0 0 126.98 126.98" id="marker-pas" xmlns="http://www.w3.org/2000/svg"><defs><linearGradient id="hid0" gradientUnits="userSpaceOnUse" x1="17.8" y1="19.62" x2="103.87" y2="112.91"><stop offset="0"/><stop offset="1"/></linearGradient><linearGradient id="hid1" gradientUnits="userSpaceOnUse" xlink:href="#hid0" x1="45.44" y1="51.69" x2="74.13" y2="82.78"/><style>.hfil1{fill:#717171}</style></defs><g id="hСлой_x0020_1"><path d="M59.26 4.22c35.07 0 63.5 28.43 63.5 63.5s-28.43 63.5-63.5 63.5-63.5-28.43-63.5-63.5 28.43-63.5 63.5-63.5z"/><path id="h1" class="hfil1" d="M122.76 67.72c0 35.07-28.43 63.5-63.5 63.5s-63.5-28.43-63.5-63.5 28.43-63.5 63.5-63.5 63.5 28.43 63.5 63.5zm-18.61-44.89C92.67 11.35 76.79 4.23 59.26 4.23s-33.41 7.12-44.89 18.6C2.89 34.31-4.23 50.19-4.23 67.72s7.12 33.41 18.6 44.89c11.48 11.48 27.36 18.6 44.89 18.6s33.41-7.12 44.89-18.6c11.48-11.48 18.6-27.36 18.6-44.89s-7.12-33.41-18.6-44.89z"/><path d="M59.26 46.56c11.69 0 21.17 9.47 21.17 21.16s-9.48 21.16-21.17 21.16c-11.69 0-21.17-9.47-21.17-21.16s9.48-21.16 21.17-21.16z"/><path class="hfil1" d="M59.26 46.56c11.69 0 21.17 9.47 21.17 21.16s-9.48 21.16-21.17 21.16c-11.69 0-21.17-9.47-21.17-21.16s9.48-21.16 21.17-21.16zm14.96 6.21c-3.82-3.82-9.12-6.2-14.96-6.2-5.84 0-11.14 2.38-14.96 6.2-3.82 3.82-6.2 9.12-6.2 14.95s2.38 11.13 6.2 14.95c3.82 3.82 9.12 6.2 14.96 6.2 5.84 0 11.14-2.38 14.96-6.2 3.82-3.82 6.2-9.12 6.2-14.95s-2.38-11.13-6.2-14.95z"/></g></symbol><symbol viewBox="0 0 512 512" id="minus" xmlns="http://www.w3.org/2000/svg"><path d="M477.675 127.498c-22.893-39.22-53.945-70.272-93.166-93.164C345.28 11.443 302.458 0 256.008 0c-46.445 0-89.281 11.443-128.502 34.333-39.223 22.889-70.276 53.941-93.169 93.165C11.443 166.723 0 209.559 0 256c0 46.445 11.446 89.273 34.334 128.5 22.892 39.22 53.944 70.272 93.167 93.167C166.727 500.556 209.559 512 256.003 512s89.281-11.444 128.504-34.333c39.222-22.887 70.273-53.947 93.164-93.167 22.887-39.225 34.328-82.059 34.328-128.5.001-46.446-11.442-89.283-34.324-128.502zm-72.333 149.836c0 5.776-2.114 10.783-6.337 14.999-4.22 4.22-9.222 6.337-15 6.337H128.001c-5.776 0-10.775-2.116-14.999-6.337-4.222-4.215-6.333-9.222-6.333-14.999v-42.67c0-5.777 2.112-10.777 6.333-15 4.223-4.223 9.221-6.335 14.999-6.335h256.004c5.777 0 10.779 2.112 15 6.335 4.223 4.221 6.337 9.221 6.337 15v42.67z"/><path d="M405.342 277.334c0 5.776-2.114 10.783-6.337 14.999-4.22 4.22-9.222 6.337-15 6.337H128.001c-5.776 0-10.775-2.116-14.999-6.337-4.222-4.215-6.333-9.222-6.333-14.999v-42.67c0-5.777 2.112-10.777 6.333-15 4.223-4.223 9.221-6.335 14.999-6.335h256.004c5.777 0 10.779 2.112 15 6.335 4.223 4.221 6.337 9.221 6.337 15v42.67z"/></symbol><symbol viewBox="277.64 400.945 40 40" id="next" xmlns="http://www.w3.org/2000/svg"><path d="M308.985 419.848l-18.5-18.45a1.552 1.552 0 00-2.19 2.196l17.4 17.352-17.401 17.352a1.548 1.548 0 001.095 2.647c.396 0 .792-.15 1.095-.452l18.501-18.45a1.548 1.548 0 000-2.195z"/></symbol><symbol viewBox="0 0 512 512" id="plus" xmlns="http://www.w3.org/2000/svg"><path d="M477.675 127.498c-22.893-39.22-53.945-70.272-93.166-93.164C345.28 11.443 302.458 0 256.008 0c-46.445 0-89.281 11.443-128.502 34.333-39.223 22.889-70.276 53.941-93.169 93.165C11.443 166.723 0 209.559 0 256c0 46.445 11.446 89.273 34.334 128.5 22.892 39.22 53.944 70.272 93.167 93.167C166.727 500.556 209.559 512 256.003 512s89.281-11.444 128.504-34.333c39.222-22.887 70.273-53.947 93.164-93.167 22.887-39.225 34.328-82.059 34.328-128.5.001-46.446-11.442-89.283-34.324-128.502zm-72.333 149.836c0 5.776-2.114 10.783-6.337 14.999-4.227 4.22-9.226 6.337-15 6.337h-85.336v85.328c0 5.776-2.116 10.778-6.337 15.007-4.219 4.219-9.22 6.33-14.999 6.33h-42.665c-5.777 0-10.777-2.111-14.999-6.33-4.224-4.228-6.336-9.229-6.336-15.007V298.67H128c-5.777 0-10.775-2.116-14.999-6.337-4.222-4.215-6.333-9.222-6.333-14.999v-42.67c0-5.777 2.112-10.777 6.333-15 4.223-4.223 9.221-6.335 14.999-6.335h85.337v-85.333c0-5.778 2.112-10.775 6.335-14.999 4.222-4.222 9.222-6.333 14.999-6.333h42.67c5.777 0 10.78 2.112 14.999 6.333 4.22 4.223 6.338 9.221 6.338 14.999v85.333h85.327c5.777 0 10.779 2.112 15 6.335 4.223 4.221 6.337 9.221 6.337 15v42.67z"/><path d="M405.342 277.334c0 5.776-2.114 10.783-6.337 14.999-4.227 4.22-9.226 6.337-15 6.337h-85.336v85.328c0 5.776-2.116 10.778-6.337 15.007-4.219 4.219-9.22 6.33-14.999 6.33h-42.665c-5.777 0-10.777-2.111-14.999-6.33-4.224-4.228-6.336-9.229-6.336-15.007V298.67H128c-5.777 0-10.775-2.116-14.999-6.337-4.222-4.215-6.333-9.222-6.333-14.999v-42.67c0-5.777 2.112-10.777 6.333-15 4.223-4.223 9.221-6.335 14.999-6.335h85.337v-85.333c0-5.778 2.112-10.775 6.335-14.999 4.222-4.222 9.222-6.333 14.999-6.333h42.67c5.777 0 10.78 2.112 14.999 6.333 4.22 4.223 6.338 9.221 6.338 14.999v85.333h85.327c5.777 0 10.779 2.112 15 6.335 4.223 4.221 6.337 9.221 6.337 15v42.67z"/></symbol><symbol viewBox="0 0 169.32 169.32" id="podpis" xmlns="http://www.w3.org/2000/svg"><path d="M57.21 54.07c-3.75 0-41.77 3.88-48.27 4.32-5.41.37-8.6 4.25-8.94 8.45v1.54c.19 2.29 1.23 4.55 3.22 6.28.61.53.71.5 1.31 1.01l28.63 25.27c.68.56.8.53 1.48 1.17 1.7 1.59 3.49 3.29 5.37 4.55-.7 1.46-11.24 48.51-11.24 50.27 0 4.53 4.16 8.93 8.93 8.93 3.87 0 8.57-3.52 12.38-5.81l28.77-17.2c2.01-1.2 3.85-2.41 5.81-3.45l39.96 23.88c4.01 2.42 8.59 4.35 13.05.03 5.16-4.99 1.89-11.15.26-18.97l-8.62-37.68 29.86-26.03c3.48-2.93 10.15-7.68 10.15-12.34 0-5.84-3.24-9.34-8.64-9.87l-48.57-4.35c-.13-1.54-15.93-37.76-17.29-40.92-.97-2.25-1.76-4.67-3.16-6.43-3.4-4.3-10.35-4.37-13.86-.18-1.99 2.37-15.21 34.38-17.76 40.45-.63 1.52-2.72 5.75-2.83 7.08z"/><path d="M57.21 54.08c-2.19 0-16.13 1.34-28.6 2.52-8.84.83-16.98 1.63-19.67 1.8-2.55.17-4.63 1.14-6.13 2.56a9.098 9.098 0 00-2.8 5.88v1.54c.09 1.17.43 2.36.98 3.44a9.55 9.55 0 002.24 2.83l.68.52.63.49 28.63 25.27.64.48c.23.16.45.33.84.69l.24.22c1.62 1.52 3.35 3.14 5.13 4.33h.01l-.01.01c-.34.73-3.24 13.18-5.99 25.5-2.67 11.99-5.25 23.9-5.25 24.77 0 2.28 1.08 4.56 2.74 6.22 1.62 1.62 3.84 2.7 6.18 2.7 3.16 0 6.89-2.36 10.21-4.47l2.16-1.34 28.77-17.2 1.89-1.15c1.27-.78 2.54-1.56 3.93-2.3v-.01l.01.01 39.96 23.88c2.01 1.21 4.17 2.31 6.35 2.54 2.18.24 4.46-.36 6.68-2.51 4.1-3.96 2.86-8.7 1.37-14.39-.37-1.45-.79-2.99-1.11-4.57l-8.62-37.68-.01-.01h.01l29.86-26.03 1.46-1.2c3.6-2.92 8.69-7.07 8.69-11.13 0-2.88-.81-5.21-2.26-6.87-1.47-1.69-3.67-2.73-6.37-2.99l-48.57-4.35h-.01v-.01C112 52.74 99.94 25 95.98 15.84l-1.17-2.69-.63-1.51c-.71-1.76-1.44-3.54-2.53-4.91-.35-.44-.76-.87-1.18-1.22-1.59-1.33-3.66-2.04-5.69-2.06-2.05-.01-4.12.62-5.75 1.91-.43.34-.86.76-1.22 1.19-1.76 2.09-12.26 27.27-16.45 37.31l-1.31 3.13-.72 1.62c-.85 1.88-2.04 4.48-2.11 5.46v.01h-.01zm0-.01c-3.75 0-41.77 3.88-48.27 4.32-5.41.37-8.6 4.25-8.94 8.45v1.54c.19 2.29 1.23 4.55 3.22 6.28.09.07.16.14.23.19l.28.22c.24.17.42.28.8.6l28.63 25.27c.68.56.8.53 1.48 1.17 1.7 1.59 3.49 3.29 5.37 4.55-.7 1.46-11.24 48.51-11.24 50.27 0 4.53 4.16 8.93 8.93 8.93 3.87 0 8.57-3.52 12.38-5.81l28.77-17.2c2.01-1.2 3.85-2.41 5.81-3.45l39.96 23.88c4.01 2.42 8.59 4.35 13.05.03 5.16-4.99 1.89-11.15.26-18.97l-8.62-37.68 29.86-26.03c3.48-2.93 10.15-7.68 10.15-12.34 0-5.84-3.24-9.34-8.64-9.87l-48.57-4.35c-.13-1.54-15.93-37.76-17.29-40.92-.97-2.25-1.76-4.67-3.16-6.43-3.4-4.3-10.35-4.37-13.86-.18-1.99 2.37-15.21 34.38-17.76 40.45-.63 1.52-2.72 5.75-2.83 7.08z"/></symbol><symbol viewBox="0 0 169.32 169.32" id="reset" xmlns="http://www.w3.org/2000/svg"><path d="M100.17 84.66l65.94-65.94c4.29-4.28 4.29-11.22 0-15.51a10.967 10.967 0 00-15.52 0L84.66 69.15 18.73 3.21c-4.3-4.29-11.23-4.29-15.52 0-4.29 4.29-4.29 11.23 0 15.51l65.94 65.94L3.21 150.6a10.955 10.955 0 000 15.51 10.95 10.95 0 007.76 3.22c2.81 0 5.62-1.08 7.76-3.22l65.93-65.94 65.93 65.94a10.95 10.95 0 007.76 3.22c2.81 0 5.62-1.08 7.76-3.22a10.955 10.955 0 000-15.51l-65.94-65.94zm0 0z"/></symbol><symbol viewBox="0 0 135.46 135.46" id="search" xmlns="http://www.w3.org/2000/svg"><path d="M59.65-.01C26.76-.01-.01 26.76-.01 59.65c0 32.9 26.77 59.66 59.66 59.66 14.47 0 27.75-5.18 38.09-13.78l28.32 28.32a5.498 5.498 0 003.9 1.62c1.41 0 2.82-.54 3.89-1.62a5.51 5.51 0 000-7.79l-28.32-28.32c8.6-10.34 13.78-23.62 13.78-38.09 0-32.89-26.76-59.66-59.66-59.66zm0 108.31c-26.82 0-48.64-21.82-48.64-48.65 0-26.82 21.82-48.64 48.64-48.64 26.83 0 48.65 21.82 48.65 48.64 0 26.83-21.82 48.65-48.65 48.65z"/></symbol><symbol viewBox="0 0 135.46 118.52" id="telegr" xmlns="http://www.w3.org/2000/svg"><path d="M53.15 77.22l-2.24 31.52c3.21 0 4.6-1.38 6.26-3.04L72.2 91.34l31.15 22.81c5.71 3.18 9.74 1.51 11.28-5.26l20.44-95.79.01-.01c1.81-8.44-3.05-11.75-8.62-9.67l-120.18 46c-8.2 3.19-8.07 7.76-1.39 9.83l30.72 9.56 71.37-44.66c3.36-2.22 6.41-.99 3.9 1.23L53.15 77.22z"/></symbol><symbol viewBox="0 0 76.18 59.26" id="treug" xmlns="http://www.w3.org/2000/svg"><path d="M70.55 6.19c-.95-1.3-2.06-1.95-3.35-1.95H.52c-1.29 0-2.4.65-3.35 1.95-.94 1.3-1.41 2.85-1.41 4.63 0 1.78.47 3.33 1.41 4.63l33.34 46.1c.94 1.3 2.06 1.95 3.35 1.95s2.41-.65 3.35-1.95l33.34-46.1c.94-1.3 1.41-2.85 1.41-4.63 0-1.78-.47-3.33-1.41-4.63z"/></symbol><symbol viewBox="0 0 135.46 118.52" id="twitter" xmlns="http://www.w3.org/2000/svg"><defs><style>.qfil0{fill:#fefefe}</style></defs><g id="qСлой_x0020_1"><path class="qfil0" d="M122.76 20.42zm11.65-2.12c-5.34.45-5.12 2.12-11.65 2.12 4.04-6.03 2.97-1.36 9.53-13.76-3.57.83-9.44 4.36-17.99 6.35-7.4-4.95-17.68-14.51-33.87-5.29-9.33 5.31-17.17 16.07-13.76 30.69C30.15 37.6 14.25 11.38 8.46 9.84c-1.91 8.2-4.24 10.43-2.08 20.06 2.21 9.87 5.21 9.53 9.49 15.92-4.81-.11-7.42-1.5-10.58-3.18 0 7.85 2.26 13.96 6.06 18.28 7.1 8.05 10.19 7.62 14.05 10.3H14.81c2.4 5 3.95 9.33 9.03 13.2 5.04 3.84 7.97 5.85 16.37 5.85-7.32 9.99-27.99 11.64-40.22 11.64 11.62 10.09 32.4 12.92 47.67 12.74 16.33-.18 35.86-8.84 44.68-16.71 19.63-17.52 28.05-35.18 29.3-61.71.27-5.63 2.15-6.02 5.81-9 2.62-2.14 6.1-5.7 6.96-8.93zm0 0h1.06l-.89-1.23z" id="q_1793194682400"/></g></symbol><symbol viewBox="0 0 135.46 84.66" id="vk" xmlns="http://www.w3.org/2000/svg"><path d="M134.26 72.62c-.37-.61-2.62-5.5-13.46-15.56-11.34-10.53-9.82-8.82 3.85-27.03 8.32-11.1 11.65-17.87 10.61-20.76-.99-2.76-7.12-2.04-7.12-2.04l-20.35.12s-1.51-.2-2.64.47c-1.09.66-1.79 2.18-1.79 2.18s-3.23 8.59-7.53 15.89c-9.07 15.4-12.7 16.21-14.18 15.25-3.45-2.22-2.58-8.95-2.58-13.73 0-14.93 2.26-21.15-4.42-22.76-2.21-.53-3.84-.89-9.5-.95-7.27-.07-13.43.03-16.91 1.73-2.32 1.13-4.1 3.67-3.01 3.81 1.35.18 4.39.82 6.01 3.02 2.09 2.84 2.02 9.22 2.02 9.22s1.2 17.57-2.81 19.76c-2.75 1.49-6.52-1.56-14.6-15.54-4.14-7.15-7.28-15.07-7.28-15.07s-.6-1.47-1.67-2.26c-1.31-.96-3.13-1.26-3.13-1.26l-19.36.11S1.5 7.31.44 8.57C-.51 9.7.36 12.02.36 12.02s15.16 35.45 32.31 53.32c15.74 16.38 33.61 15.31 33.61 15.31h8.1s2.44-.27 3.69-1.62c1.15-1.23 1.11-3.55 1.11-3.55s-.16-10.87 4.88-12.47c4.97-1.57 11.36 10.5 18.12 15.15 5.12 3.51 9 2.74 9 2.74l18.1-.25s9.47-.58 4.98-8.03z"/></symbol><symbol viewBox="0 0 512 512" id="x-button" xmlns="http://www.w3.org/2000/svg"><circle cx="256" cy="256" r="256"/><path d="M510.28 285.304L367.912 142.936 150.248 368.608l140.928 140.928c115.176-15.84 205.88-108.248 219.104-224.232z"/><path d="M354.376 371.536a19.954 19.954 0 01-14.144-5.856L146.408 171.848c-7.816-7.816-7.816-20.472 0-28.28s20.472-7.816 28.28 0L368.52 337.4c7.816 7.816 7.816 20.472 0 28.28a19.954 19.954 0 01-14.144 5.856z"/><path d="M160.544 371.536a19.954 19.954 0 01-14.144-5.856c-7.816-7.816-7.816-20.472 0-28.28l193.832-193.832c7.816-7.816 20.472-7.816 28.28 0s7.816 20.472 0 28.28L174.688 365.68a19.94 19.94 0 01-14.144 5.856z"/></symbol></svg>