<?xml version="1.0" encoding="utf-8"?>
<!-- Generator: Adobe Illustrator 13.0.0, SVG Export Plug-In . SVG Version: 6.00 Build 14948)  -->
<!DOCTYPE svg PUBLIC "-//W3C//DTD SVG 1.1//EN" "http://www.w3.org/Graphics/SVG/1.1/DTD/svg11.dtd">
<svg version="1.1" id="Layer_1" xmlns="http://www.w3.org/2000/svg" xmlns:xlink="http://www.w3.org/1999/xlink" x="0px" y="0px"
	 width="13px" height="13px" viewBox="0 0 13 13" enable-background="new 0 0 13 13" xml:space="preserve">
<path fill="#FFFFFF" d="M12.63,10.795l-2.401-2.457c0.449-0.811,0.709-1.746,0.709-2.743C10.938,2.51,8.484,0,5.469,0
	S0,2.51,0,5.595s2.454,5.595,5.469,5.595c1.127,0,2.175-0.352,3.046-0.953l2.33,2.386C11.092,12.874,11.417,13,11.74,13
	c0.32,0,0.645-0.126,0.891-0.378C13.124,12.116,13.124,11.301,12.63,10.795 M1.683,5.595c0-2.136,1.699-3.874,3.786-3.874
	s3.786,1.738,3.786,3.874S7.557,9.468,5.469,9.468C3.381,9.468,1.683,7.73,1.683,5.595"/>
</svg>
